<svg width="41" height="41" viewBox="0 0 41 41" fill="none" xmlns="http://www.w3.org/2000/svg">
<g clip-path="url(#clip0_1_102)">
<path d="M24.2656 38.572C21.94 40.2791 18.7236 39.2977 18.5917 39.2565C18.2783 39.1575 18.0721 38.8689 18.0721 38.5472V31.4713C18.0721 29.0715 16.934 27.0427 14.6826 25.4346C12.9425 24.1893 11.1612 23.678 11.1447 23.6697C11.1282 23.6697 11.1199 23.6615 11.1034 23.6532L10.6828 23.513C10.4354 23.9171 9.99835 24.1893 9.48704 24.1893H2.18848C1.42151 24.1893 0.794739 23.5625 0.794739 22.7955V2.96159C0.794739 2.19462 1.42151 1.56785 2.18848 1.56785H9.49529C10.155 1.56785 10.7076 2.02968 10.8478 2.63996C11.8292 1.59259 13.2229 0.932838 14.7733 0.932838H32.0755C35.7536 0.932838 38.104 2.85438 38.5163 6.2109L40.7265 20.2472C41.0482 22.2842 40.2152 24.346 38.5988 25.5005C37.6834 26.1603 36.6031 26.5067 35.4732 26.5067H26.4758V33.0713C26.4758 35.6443 25.7336 37.4916 24.2656 38.572ZM9.38807 3.0688H2.28744V22.6966H9.38807V3.0688ZM35.4732 25.014C36.2897 25.014 37.0649 24.7666 37.7246 24.2882C38.8792 23.4553 39.4812 21.9626 39.2421 20.4781L37.0401 6.43356C37.0401 6.42531 37.0401 6.41707 37.0401 6.40882C36.636 3.12653 34.1207 2.43378 32.0755 2.43378H14.7733C12.6291 2.43378 10.889 4.17389 10.889 6.3181V22.0038L11.5735 22.2347C11.8127 22.3007 13.6518 22.8615 15.5156 24.1893C18.1628 26.0696 19.5648 28.5849 19.5648 31.4631V37.9452C20.4225 38.1101 22.1461 38.2751 23.3914 37.3597C24.447 36.5845 24.9831 35.1412 24.9831 33.0713V25.7562C24.9831 25.3438 25.3212 25.0057 25.7336 25.0057H35.4732V25.014Z" fill="black"/>
</g>
<defs>
<clipPath id="clip0_1_102">
<rect width="40" height="40" fill="white" transform="matrix(1 0 0 -1 0.794739 40.2521)"/>
</clipPath>
</defs>
</svg>
