<svg width="52" height="52" viewBox="0 0 52 52" fill="none" xmlns="http://www.w3.org/2000/svg">
<path d="M34.0293 45.375C39.1106 42.6751 42.5293 37.6287 42.5293 31.8489C42.5293 23.2249 27.9579 7.125 27.9579 7.125C27.9579 7.125 24.8008 16.4254 15.815 20.5713C10.9579 22.8124 8.5293 27.4907 8.5293 31.8489C8.5293 37.6287 11.948 42.6751 17.0293 45.375" stroke="#0D2B74" stroke-width="2" stroke-linecap="round" stroke-linejoin="round"/>
<path d="M28.7168 43.25C30.6223 42.05 31.9043 39.8072 31.9043 37.2384C31.9043 33.4055 25.5293 26.25 25.5293 26.25C25.5293 26.25 24.4143 27.5015 23.1169 29.2381C24.5282 29.9021 27.21 34.0762 25.5293 37.2384C24.4324 39.3022 20.8889 38.15 19.7638 34.75C19.3871 35.6521 19.1543 36.5059 19.1543 37.2384C19.1543 39.8072 20.4363 42.05 22.3418 43.25" stroke="#0D2B74" stroke-width="2" stroke-linecap="round" stroke-linejoin="round"/>
</svg>
