<svg width="20" height="17" viewBox="0 0 20 17" fill="none" xmlns="http://www.w3.org/2000/svg">
<g clip-path="url(#clip0_1_2443)">
<circle cx="9.37158" cy="8.83057" r="7.33057" fill="white"/>
<path fill-rule="evenodd" clip-rule="evenodd" d="M13.7167 5.94434C13.7167 5.94434 11.9319 6.70769 13.1454 7.84165C14.3571 8.97383 14.9745 10.0493 14.9151 10.2957C14.8601 10.5404 13.691 11.8083 14.3625 11.709C15.0375 11.6106 15.5352 10.2807 15.6425 9.4916C15.7481 8.70253 14.8228 7.15188 14.7847 7.02953C14.7528 6.90452 14.1442 5.95763 13.7167 5.94434Z" fill="#999999"/>
<path fill-rule="evenodd" clip-rule="evenodd" d="M4.69053 4.48647C4.45103 5.67806 5.34252 7.50001 7.23816 7.94331C9.13292 8.38661 8.3186 8.01779 8.0241 7.42643C7.72782 6.83507 7.99305 6.39177 8.45166 6.24459C8.91116 6.09653 8.79495 6.50437 9.47621 5.65323C9.6483 3.88004 8.17046 5.6293 8.02321 4.89076C9.48686 3.19116 7.34372 2.55015 6.7219 2.7718C6.10007 2.99345 4.93004 3.294 4.69053 4.48647Z" fill="#999999"/>
<path fill-rule="evenodd" clip-rule="evenodd" d="M8.16986 10.2959C8.05976 10.3447 7.54651 10.6651 7.36981 10.887C7.1931 11.1089 7.11585 11.5775 7.36981 11.7745C7.62377 11.9724 7.3556 12.9096 8.04022 13.0818C8.72484 13.2539 9.41035 13.3542 9.4361 13.8956C9.46007 14.437 9.37216 15.6946 9.04273 15.8188C9.48671 16.0647 10.5674 14.7583 10.9474 14.0678C11.3283 13.3782 11.4553 12.3913 11.4296 12.1446C11.4038 11.8987 11.5814 11.3813 11.6578 10.7157C11.7333 10.0501 11.1516 10.0057 11.0762 9.71016C10.9989 9.41374 10.8959 9.08802 8.16986 10.2959Z" fill="#999999"/>
</g>
<defs>
<clipPath id="clip0_1_2443">
<rect width="19" height="16" fill="white" transform="translate(0.0410156 0.5)"/>
</clipPath>
</defs>
</svg>
