<svg width="55" height="48" viewBox="0 0 55 48" fill="none" xmlns="http://www.w3.org/2000/svg">
<path d="M49.1006 5.59178C47.8545 4.32119 46.3749 3.31327 44.7464 2.6256C43.1179 1.93793 41.3724 1.58398 39.6097 1.58398C37.847 1.58398 36.1015 1.93793 34.473 2.6256C32.8445 3.31327 31.3649 4.32119 30.1188 5.59178L27.5326 8.22746L24.9463 5.59178C22.4292 3.02648 19.0152 1.58531 15.4554 1.58531C11.8956 1.58531 8.48163 3.02648 5.96447 5.59178C3.44732 8.15708 2.0332 11.6364 2.0332 15.2642C2.0332 18.8921 3.44732 22.3714 5.96447 24.9367L14.2174 33.2391L26.0994 45.4451C26.8846 46.2517 28.1805 46.2517 28.9657 45.4451L40.8477 33.2391L49.1006 24.9367C50.3474 23.6667 51.3364 22.1588 52.0111 20.4992C52.6859 18.8396 53.0332 17.0607 53.0332 15.2642C53.0332 13.4678 52.6859 11.6889 52.0111 10.0293C51.3364 8.36966 50.3474 6.86177 49.1006 5.59178Z" stroke="#0D2B74" stroke-width="3" stroke-linecap="round" stroke-linejoin="round"/>
</svg>
