<svg width="27" height="23" viewBox="0 0 27 23" fill="none" xmlns="http://www.w3.org/2000/svg">
<path d="M13.1171 21.8328C19.2127 17.7139 25.3083 13.1247 25.3083 7.02911C25.3106 6.22797 25.1545 5.43429 24.849 4.69369C24.5435 3.9531 24.0946 3.28021 23.5281 2.71372C22.9616 2.14723 22.2887 1.69831 21.5481 1.39279C20.8075 1.08727 20.0138 0.931173 19.2127 0.933472C17.6453 0.933472 16.0952 1.52562 14.9022 2.71862L13.1171 4.50377L11.3319 2.71862C10.767 2.15044 10.0954 1.69954 9.35566 1.39186C8.6159 1.08418 7.82262 0.925781 7.02142 0.925781C6.22023 0.925781 5.42695 1.08418 4.68719 1.39186C3.94744 1.69954 3.27581 2.15044 2.71094 2.71862C2.14415 3.28413 1.69467 3.95604 1.38832 4.69577C1.08196 5.43549 0.924778 6.22846 0.925786 7.02911C0.925786 13.1247 7.02142 17.7139 13.1171 21.8328Z" fill="black" fill-opacity="0.5" stroke="white" stroke-width="1.5"/>
</svg>
