<svg width="33" height="32" viewBox="0 0 33 32" fill="none" xmlns="http://www.w3.org/2000/svg">
<ellipse cx="16.0424" cy="16.0004" rx="13.5385" ry="13.5385" fill="white"/>
<ellipse cx="16.0424" cy="16.0004" rx="13.5385" ry="13.5385" fill="black" fill-opacity="0.2"/>
<path d="M21.5968 8.59277H10.4868C9.44077 8.59277 8.63477 9.39877 8.63477 10.4448V21.5548C8.63477 22.5998 9.44077 23.4068 10.4868 23.4068H21.5968C22.6418 23.4068 23.4488 22.6008 23.4488 21.5548V10.4448C23.4488 9.39877 22.6418 8.59277 21.5968 8.59277ZM16.0528 13.0898C17.6958 13.0898 19.0268 14.3798 19.0268 15.9718C19.0268 17.5628 17.6958 18.8538 16.0528 18.8538C14.4108 18.8538 13.0798 17.5628 13.0798 15.9718C13.0798 14.3798 14.4118 13.0898 16.0528 13.0898ZM21.5968 21.0918C21.5968 21.4168 21.4578 21.5548 21.1338 21.5548H10.9498C10.6258 21.5548 10.4868 21.4168 10.4868 21.0918V14.6108L11.6408 14.8618C11.5168 15.2648 11.4498 15.6908 11.4498 16.1328C11.4498 18.5948 13.5118 20.5928 16.0528 20.5928C18.5948 20.5928 20.6558 18.5958 20.6558 16.1328C20.6558 15.6908 20.5888 15.2648 20.4648 14.8618L21.5968 14.6108V21.0918ZM21.5968 12.7598C21.5968 13.0158 21.3898 13.2228 21.1338 13.2228H19.2818C19.0258 13.2228 18.8188 13.0158 18.8188 12.7598V10.9078C18.8188 10.6518 19.0258 10.4448 19.2818 10.4448H21.1338C21.3898 10.4448 21.5968 10.6518 21.5968 10.9078V12.7598Z" fill="#3A3939"/>
<path d="M16.041 1C24.312 1 31.041 7.729 31.041 16C31.041 24.271 24.312 31 16.041 31C7.77002 31 1.04102 24.271 1.04102 16C1.04102 7.729 7.77002 1 16.041 1ZM16.041 0C7.20402 0 0.0410156 7.164 0.0410156 16C0.0410156 24.836 7.20402 32 16.041 32C24.878 32 32.041 24.837 32.041 16C32.041 7.163 24.878 0 16.041 0Z" fill="white"/>
<path d="M16.041 1C24.312 1 31.041 7.729 31.041 16C31.041 24.271 24.312 31 16.041 31C7.77002 31 1.04102 24.271 1.04102 16C1.04102 7.729 7.77002 1 16.041 1ZM16.041 0C7.20402 0 0.0410156 7.164 0.0410156 16C0.0410156 24.836 7.20402 32 16.041 32C24.878 32 32.041 24.837 32.041 16C32.041 7.163 24.878 0 16.041 0Z" fill="black" fill-opacity="0.2"/>
</svg>
