<svg width="41" height="41" viewBox="0 0 41 41" fill="none" xmlns="http://www.w3.org/2000/svg">
<g clip-path="url(#clip0_1_98)">
<path d="M37.4607 34.3958L39.6869 20.2476C39.6974 20.1948 39.6974 20.1526 39.6974 20.0999C39.6974 17.1246 37.2813 14.7086 34.3061 14.7086H25.9396V8.68425C25.9396 6.14159 25.2011 4.31636 23.7345 3.24021C21.4134 1.54158 18.2272 2.51223 18.09 2.55443C17.6891 2.68103 17.4254 3.0503 17.4254 3.46177V10.2246C17.4254 15.5632 11.2428 17.3778 10.979 17.4517C10.8524 17.4833 10.7469 17.5466 10.652 17.6205C10.3249 17.209 9.81848 16.9453 9.2593 16.9453H2.69691C1.71571 16.9453 0.913879 17.7471 0.913879 18.7283V37.276C0.913879 38.2572 1.71571 39.0591 2.69691 39.0591H9.2593C9.91343 39.0591 10.4937 38.7003 10.7997 38.1728C11.7703 39.1013 13.0786 39.6604 14.5134 39.6604H31.0566C34.7176 39.6499 37.0492 37.7402 37.4607 34.3958ZM9.1327 37.1389H2.82351V18.8444H9.1327V37.1389ZM11.0423 34.2691V19.298C11.19 19.3297 11.3377 19.3297 11.496 19.2875C11.8125 19.2031 19.335 17.0191 19.335 10.2246V4.23195C20.1579 4.10535 21.5822 4.03149 22.6056 4.78058C23.5552 5.47691 24.03 6.78517 24.03 8.68425V15.6792C24.03 16.2067 24.4625 16.6393 24.9901 16.6393H34.3167C36.2052 16.6393 37.7561 18.1586 37.7878 20.0471L35.5722 34.132C35.5722 34.1425 35.5722 34.1531 35.5722 34.1636C35.2768 36.548 33.768 37.7508 31.0671 37.7508H14.524C12.6038 37.7403 11.0423 36.1788 11.0423 34.2691Z" fill="black"/>
</g>
<defs>
<clipPath id="clip0_1_98">
<rect width="40" height="40" fill="white" transform="translate(0.310364 0.949341)"/>
</clipPath>
</defs>
</svg>
