<svg width="19" height="18" viewBox="0 0 19 18" fill="#0D2B74" xmlns="http://www.w3.org/2000/svg">
<path d="M17.8672 5.89941C17.6914 5.75879 13.9297 2.73535 13.1211 2.06738C12.3477 1.46973 11.0117 0.0986328 9.5 0.0986328C7.95312 0.0986328 6.65234 1.43457 5.84375 2.06738C5 2.77051 1.23828 5.79395 1.09766 5.89941C0.710938 6.21582 0.5 6.67285 0.5 7.2002V16.4111C0.5 17.3604 1.23828 18.0986 2.1875 18.0986H16.8125C17.7266 18.0986 18.5 17.3604 18.5 16.4111V7.2002C18.5 6.67285 18.2539 6.21582 17.8672 5.89941ZM16.8125 16.2002C16.8125 16.3408 16.707 16.4111 16.6016 16.4111H2.39844C2.25781 16.4111 2.1875 16.3408 2.1875 16.2002V7.30566C2.1875 7.23535 2.1875 7.16504 2.25781 7.12988C2.82031 6.67285 6.08984 4.07129 6.89844 3.40332C7.53125 2.87598 8.65625 1.78613 9.5 1.78613C10.3086 1.78613 11.4336 2.91113 12.0664 3.40332C12.875 4.07129 16.1445 6.67285 16.707 7.12988C16.7773 7.16504 16.8125 7.23535 16.8125 7.30566V16.2002ZM15.6875 9.62598L15.125 8.95801C14.9844 8.78223 14.7383 8.74707 14.5273 8.92285C13.543 9.73145 12.4883 10.5752 12.0664 10.8916C11.4336 11.4189 10.3086 12.4736 9.5 12.4736C8.65625 12.4736 7.53125 11.3838 6.89844 10.8916C6.47656 10.5752 5.42188 9.73145 4.4375 8.92285C4.22656 8.74707 3.98047 8.78223 3.83984 8.95801L3.27734 9.62598C3.13672 9.80176 3.17188 10.083 3.34766 10.2236C4.36719 11.0322 5.45703 11.9111 5.84375 12.2275C6.61719 12.8252 7.95312 14.1611 9.5 14.1611C11.0117 14.1611 12.3125 12.8604 13.1211 12.2275C13.5078 11.876 14.5977 11.0322 15.6172 10.2236C15.793 10.083 15.8281 9.80176 15.6875 9.62598Z" fill="#0D2B74"/>
</svg>
