<svg width="20" height="17" viewBox="0 0 20 17" fill="none" xmlns="http://www.w3.org/2000/svg">
<g clip-path="url(#clip0_1_2442)">
<mask id="mask0_1_2442" style="mask-type:alpha" maskUnits="userSpaceOnUse" x="2" y="2" width="15" height="14">
<path d="M7.94428 10.2632C8.8148 11.1074 9.86811 11.7591 11.0302 12.1726L12.6024 10.9767C12.649 10.9461 12.7043 10.9296 12.7609 10.9296C12.8175 10.9296 12.8727 10.9461 12.9193 10.9767L15.8385 12.7745C15.9493 12.8382 16.0431 12.9257 16.1125 13.03C16.1819 13.1343 16.225 13.2526 16.2383 13.3755C16.2517 13.4984 16.2349 13.6227 16.1894 13.7384C16.1439 13.8541 16.0709 13.9581 15.9761 14.0421L14.6083 15.3337C14.4124 15.5187 14.1716 15.6545 13.9075 15.7289C13.6433 15.8033 13.364 15.8141 13.0945 15.7602C10.4056 15.2294 7.92724 13.9861 5.94258 12.1726C4.00196 10.341 2.65907 8.01055 2.07679 5.46382C2.01927 5.21016 2.03127 4.94659 2.11164 4.69866C2.19201 4.45073 2.33802 4.22685 2.53551 4.04872L3.95339 2.74124C4.04113 2.65505 4.14813 2.58896 4.26638 2.5479C4.38463 2.50684 4.51107 2.49189 4.63622 2.50416C4.76137 2.51643 4.882 2.55561 4.98907 2.61875C5.09614 2.6819 5.18688 2.76738 5.25449 2.8688L7.19781 5.62327C7.23133 5.66652 7.24942 5.71893 7.24942 5.77275C7.24942 5.82658 7.23133 5.87898 7.19781 5.92224L5.91755 7.39315C6.36192 8.48176 7.05424 9.46216 7.94428 10.2632Z" fill="black"/>
</mask>
<g mask="url(#mask0_1_2442)">
<rect x="1.07812" y="2.5" width="15.9686" height="15.272" fill="white"/>
</g>
</g>
<defs>
<clipPath id="clip0_1_2442">
<rect width="19" height="16" fill="white" transform="translate(0.0410156 0.5)"/>
</clipPath>
</defs>
</svg>
