<svg width="23" height="23" viewBox="0 0 23 23" fill="#0D2B74" xmlns="http://www.w3.org/2000/svg">
<path d="M22.1836 2.06934L17.7148 1.03809C17.2422 0.90918 16.7266 1.16699 16.5117 1.63965L14.4492 6.45215C14.2773 6.88184 14.4062 7.35449 14.75 7.65527L17.3711 9.80371C15.8242 13.0693 13.1172 15.8193 9.76562 17.4092L7.61719 14.7881C7.31641 14.4443 6.84375 14.3154 6.41406 14.4873L1.60156 16.5498C1.12891 16.7646 0.914062 17.2803 1 17.7529L2.03125 22.2217C2.16016 22.6943 2.54688 22.9951 3.0625 22.9951C14.0625 22.9951 23 14.1006 23 3.05762C23 2.58496 22.6562 2.19824 22.1836 2.06934Z" fill="#0D2B74"/>
</svg>
