<svg width="33" height="32" viewBox="0 0 33 32" fill="none" xmlns="http://www.w3.org/2000/svg">
<circle cx="16.041" cy="16" r="15.5" stroke="white"/>
<circle cx="16.041" cy="16" r="15.5" stroke="black" stroke-opacity="0.2"/>
<circle cx="16.0422" cy="16.0002" r="12.4231" fill="#CCCCCC"/>
<circle cx="16.0422" cy="16.0002" r="12.4231" stroke="white"/>
<circle cx="16.0422" cy="16.0002" r="12.4231" stroke="black" stroke-opacity="0.2"/>
<path d="M19.8943 9.88996L9.35099 14.0156C8.5723 14.3203 8.48924 15.3893 9.21152 15.8106L11.1181 16.9228L11.7481 19.8629C11.8918 20.5335 12.6524 20.8637 13.2404 20.5109L15.1181 19.3843L17.8542 21.2785C18.4488 21.6902 19.2704 21.3539 19.4057 20.6434L21.241 11.0083C21.3882 10.2356 20.6268 9.60332 19.8943 9.88996Z" fill="#3A3939"/>
<path d="M19.8943 9.88996L9.35099 14.0156C8.5723 14.3203 8.48924 15.3893 9.21152 15.8106L11.1181 16.9228L11.7481 19.8629C11.8918 20.5335 12.6524 20.8637 13.2404 20.5109L15.1181 19.3843L17.8542 21.2785C18.4488 21.6902 19.2704 21.3539 19.4057 20.6434L21.241 11.0083C21.3882 10.2356 20.6268 9.60332 19.8943 9.88996Z" stroke="white"/>
<path d="M19.8943 9.88996L9.35099 14.0156C8.5723 14.3203 8.48924 15.3893 9.21152 15.8106L11.1181 16.9228L11.7481 19.8629C11.8918 20.5335 12.6524 20.8637 13.2404 20.5109L15.1181 19.3843L17.8542 21.2785C18.4488 21.6902 19.2704 21.3539 19.4057 20.6434L21.241 11.0083C21.3882 10.2356 20.6268 9.60332 19.8943 9.88996Z" stroke="black" stroke-opacity="0.2"/>
<path d="M17.5819 13.2158L12.4781 16.2317C12.4019 16.2767 12.3643 16.3665 12.3858 16.4524L12.8339 18.2446C12.8789 18.4248 13.1237 18.4517 13.2068 18.2856L13.5645 17.57C13.575 17.5491 13.5891 17.5302 13.6061 17.5141L17.8209 13.5334C17.9943 13.3697 17.7872 13.0945 17.5819 13.2158Z" fill="#D9D9D9"/>
</svg>
