<svg width="33" height="32" viewBox="0 0 33 32" fill="none" xmlns="http://www.w3.org/2000/svg">
<circle cx="16.0403" cy="16.0002" r="12.9231" fill="white"/>
<circle cx="16.0403" cy="16.0002" r="12.9231" fill="black" fill-opacity="0.2"/>
<path d="M15.3791 15.8333C14.9581 15.4443 14.4911 14.8983 14.2881 14.4143C14.2571 14.3523 14.1951 14.1963 14.2881 14.0713C14.4751 13.8223 14.5061 13.8063 14.7091 13.5723C14.8491 13.4003 14.9581 13.2453 14.9121 13.1043L14.2111 11.2803C14.1481 11.1553 13.9621 11.1403 13.7431 11.1243C13.5561 11.1243 13.3541 11.1243 13.2131 11.1553C12.9011 11.2643 12.2631 12.1063 12.1851 12.7143C12.0131 14.0393 13.2131 15.8013 14.4131 16.8923C15.6131 17.9993 17.4671 19.0443 18.7761 18.7473C19.3841 18.6073 20.1631 17.9053 20.2251 17.5783C20.2561 17.4383 20.2411 17.2353 20.2091 17.0483C20.1931 16.8303 20.1471 16.6743 20.0221 16.6123L18.4331 15.8793C18.2921 15.8013 18.1521 15.8633 18.0121 16.0353C17.8411 16.2693 17.7621 16.3623 17.5601 16.6123C17.4511 16.7523 17.3731 16.8463 17.2491 16.8613C17.1081 16.8923 16.9221 16.8143 16.8901 16.8143C16.3911 16.6443 15.8151 16.2233 15.3791 15.8333ZM10.1431 21.4313L11.0471 19.1393C10.0491 17.9853 9.44106 16.4723 9.44106 14.8203C9.44106 11.1723 12.4021 8.22529 16.0491 8.22529C19.6951 8.22529 22.6401 11.1723 22.6401 14.8203C22.6401 18.4683 19.6951 21.4313 16.0491 21.4313C14.5841 21.4313 13.2441 20.9633 12.1531 20.1533L10.1431 21.4313ZM9.03606 19.1853L7.78906 24.1743L12.2461 22.1473C13.3841 22.7393 14.6771 23.0833 16.0491 23.0833C20.5991 23.0833 24.2921 19.3883 24.2921 14.8193C24.2921 10.2673 20.5981 6.57129 16.0491 6.57129C11.4831 6.57129 7.79006 10.2663 7.79006 14.8193C7.79006 16.4263 8.25706 17.9233 9.03606 19.1853Z" fill="#3A3939"/>
<path d="M16.041 1C24.312 1 31.041 7.729 31.041 16C31.041 24.271 24.312 31 16.041 31C7.77002 31 1.04102 24.271 1.04102 16C1.04102 7.729 7.77002 1 16.041 1ZM16.041 0C7.20402 0 0.0410156 7.164 0.0410156 16C0.0410156 24.836 7.20502 32 16.041 32C24.877 32 32.041 24.837 32.041 16C32.041 7.163 24.877 0 16.041 0Z" fill="white"/>
<path d="M16.041 1C24.312 1 31.041 7.729 31.041 16C31.041 24.271 24.312 31 16.041 31C7.77002 31 1.04102 24.271 1.04102 16C1.04102 7.729 7.77002 1 16.041 1ZM16.041 0C7.20402 0 0.0410156 7.164 0.0410156 16C0.0410156 24.836 7.20502 32 16.041 32C24.877 32 32.041 24.837 32.041 16C32.041 7.163 24.877 0 16.041 0Z" fill="black" fill-opacity="0.2"/>
</svg>
