<svg width="29" height="30" viewBox="0 0 29 30" fill="none" xmlns="http://www.w3.org/2000/svg">
<path fill-rule="evenodd" clip-rule="evenodd" d="M14.5692 0.697266C6.78004 0.697266 0.45459 7.16647 0.45459 15.1327C0.45459 23.0989 6.78004 29.5681 14.5692 29.5681C15.1234 29.5681 15.6681 29.5275 16.2065 29.4633L16.2233 29.4804L16.2421 29.459C23.2429 28.6111 28.6839 22.5194 28.6839 15.1327C28.6839 7.7471 23.2429 1.65963 16.2442 0.809541C16.2264 0.794571 16.2107 0.777463 16.1919 0.762492V0.756077L16.1605 0.79564C15.6367 0.734691 15.1066 0.697266 14.5692 0.697266ZM14.0465 1.79329V7.11301H9.50887C10.4676 5.03538 11.7818 3.23362 13.3522 1.82964C13.5812 1.80826 13.8144 1.80291 14.0465 1.79329ZM15.092 1.79329C15.3251 1.80398 15.5593 1.80719 15.7883 1.82964C17.3618 3.23362 18.6792 5.03217 19.64 7.11301H15.092V1.79329ZM11.5121 2.14829C10.1903 3.60891 9.1192 5.28744 8.34415 7.11301H4.12962C5.95107 4.62996 8.56111 2.87425 11.5121 2.14829ZM17.6243 2.14829C20.5761 2.87371 23.188 4.62948 25.0099 7.11301H20.8006C20.0235 5.28683 18.9488 3.60825 17.6243 2.14829ZM3.41971 8.1823H7.92594C7.19121 10.2403 6.79139 12.4077 6.7424 14.598H1.52626C1.61026 12.3291 2.26286 10.1202 3.41971 8.1823ZM9.06766 8.1823H14.0465V14.598H7.78793C7.84531 12.3995 8.27841 10.2282 9.06766 8.1823ZM15.092 8.1823H20.0792C20.8685 10.2281 21.3016 12.3995 21.3589 14.598H15.092V8.1823ZM21.2188 8.1823H25.7187C26.8756 10.1202 27.5271 12.3291 27.6112 14.598H22.4044C22.3544 12.4075 21.9536 10.2402 21.2177 8.1823H21.2188ZM1.52521 15.6673H6.74135C6.79027 17.8577 7.19009 20.0251 7.92489 22.0831H3.41762C2.26136 20.145 1.61018 17.9361 1.52626 15.6673H1.52521ZM7.78688 15.6673H14.0465V22.0831H9.06766C8.27843 20.0372 7.84533 17.8659 7.78793 15.6673H7.78688ZM15.0909 15.6673H21.3317C21.2209 17.6808 20.6835 19.8942 19.7446 22.0831H15.092L15.0909 15.6673ZM22.3783 15.6673H27.6112C27.5272 17.9361 26.8761 20.145 25.7198 22.0831H20.88C21.7614 19.9124 22.2758 17.7161 22.3783 15.6673ZM4.12962 23.1524H8.34624C9.12131 24.9779 10.1924 26.6565 11.5142 28.1171C8.56191 27.3921 5.94952 25.6363 4.12753 23.1524H4.12962ZM9.50991 23.1524H14.0475V28.4721C13.8164 28.4614 13.5833 28.4571 13.3554 28.4357C11.7829 27.0318 10.4697 25.2321 9.50991 23.1524ZM15.093 23.1524H19.2365C18.3038 25.0695 17.121 26.8483 15.7204 28.44C15.5133 28.4593 15.3021 28.4635 15.093 28.4721V23.1524ZM20.4127 23.1524H25.0109C23.1213 25.7353 20.3804 27.5303 17.296 28.2048C18.5288 26.6547 19.5746 24.9583 20.4106 23.1524H20.4127Z" fill="white"/>
</svg>
