<svg width="33" height="32" viewBox="0 0 33 32" fill="none" xmlns="http://www.w3.org/2000/svg">
<circle cx="16.0403" cy="16.0002" r="12.9231" fill="white"/>
<circle cx="16.0403" cy="16.0002" r="12.9231" fill="black" fill-opacity="0.2"/>
<path d="M24.5555 12.2954C24.5555 12.2954 24.3865 11.0174 23.8655 10.4544C23.2045 9.71642 22.4645 9.71242 22.1245 9.67042C19.6925 9.48242 16.0455 9.48242 16.0455 9.48242H16.0375C16.0375 9.48242 12.3905 9.48242 9.95852 9.67042C9.61952 9.71242 8.87952 9.71642 8.21752 10.4544C7.69752 11.0174 7.52752 12.2954 7.52752 12.2954C7.52752 12.2954 7.35352 13.7954 7.35352 15.2944V16.7004C7.35352 18.2014 7.52752 19.7004 7.52752 19.7004C7.52752 19.7004 7.69652 20.9784 8.21752 21.5394C8.87952 22.2774 9.74652 22.2544 10.1335 22.3314C11.5235 22.4744 16.0415 22.5184 16.0415 22.5184C16.0415 22.5184 19.6925 22.5124 22.1245 22.3254C22.4635 22.2814 23.2045 22.2774 23.8655 21.5404C24.3855 20.9784 24.5555 19.7014 24.5555 19.7014C24.5555 19.7014 24.7295 18.2014 24.7295 16.7014V15.2954C24.7295 13.7954 24.5555 12.2954 24.5555 12.2954ZM13.8715 19.2594V12.7414L19.3035 16.0004L13.8715 19.2594Z" fill="#3A3939"/>
<path d="M16.041 1C24.312 1 31.041 7.729 31.041 16C31.041 24.271 24.312 31 16.041 31C7.77002 31 1.04102 24.271 1.04102 16C1.04102 7.729 7.77002 1 16.041 1ZM16.041 0C7.20502 0 0.0410156 7.164 0.0410156 16C0.0410156 24.836 7.20502 32 16.041 32C24.877 32 32.041 24.837 32.041 16C32.041 7.163 24.877 0 16.041 0Z" fill="white"/>
<path d="M16.041 1C24.312 1 31.041 7.729 31.041 16C31.041 24.271 24.312 31 16.041 31C7.77002 31 1.04102 24.271 1.04102 16C1.04102 7.729 7.77002 1 16.041 1ZM16.041 0C7.20502 0 0.0410156 7.164 0.0410156 16C0.0410156 24.836 7.20502 32 16.041 32C24.877 32 32.041 24.837 32.041 16C32.041 7.163 24.877 0 16.041 0Z" fill="black" fill-opacity="0.2"/>
</svg>
